<svg xmlns="http://www.w3.org/2000/svg" fill="none" viewBox="0 0 240 240"><circle cx="120" cy="120" r="120" fill="#e74f10"/><circle cx="121.489" cy="117.559" r="28.607" stroke="#fff" stroke-width="3.764"/><path fill="#fff" d="m170.233 117.935-62.295-6.775v5.458l49.685 1.317-49.685 3.012v4.893z"/><path stroke="#fff" stroke-width="3.764" d="M114.337 114.359v7.528M119.983 114.359v7.528M126.006 114.359v7.528M132.028 114.359v7.528"/><path fill="#fff" d="M115.09 85h-13.739c46.298 15.244 44.416 51.756.941 67h12.798c30.457-26.669 30.27-41.335 0-67"/><path fill="#fff" fill-opacity=".7" d="M141.77 37.051q-1.409-.364-2.406-1.133-.993-.78-1.463-1.815a4.1 4.1 0 0 1-.329-2.207l1.661.43q-.05.765.275 1.428.326.66.99 1.155.668.482 1.637.733 1.146.296 2.087.083a3.2 3.2 0 0 0 1.596-.876q.655-.663.932-1.733t.025-1.967a3.18 3.18 0 0 0-.971-1.54q-.72-.644-1.865-.94-.957-.247-1.777-.137a3.1 3.1 0 0 0-1.423.518 2.8 2.8 0 0 0-.946 1.111l-1.661-.43q.444-1.093 1.358-1.77.913-.677 2.157-.865 1.248-.202 2.657.164 1.61.416 2.647 1.343a4.7 4.7 0 0 1 1.429 2.209q.396 1.27.019 2.73-.378 1.46-1.344 2.392-.951.923-2.319 1.227-1.355.307-2.966-.11m5.582-3.148-6.079-1.573.306-1.183 6.079 1.573zm1.634 4.973 3.642-9.044 1.592.641-3.103 7.706-.361-.496 9.035-4.966 1.724.694-11.106 6.038zm6.136-2.812 1.563-.646 1.321 7.09-1.821-.733zm7.845 9.524q-1.446-.822-2.228-1.999-.781-1.177-.834-2.507-.045-1.34.7-2.653.745-1.311 1.914-1.947 1.176-.648 2.587-.579 1.41.069 2.858.891 1.446.822 2.228 1.999t.827 2.518q.051 1.33-.693 2.642-.745 1.311-1.921 1.958-1.168.637-2.58.568-1.411-.069-2.858-.891m.758-1.334q1.029.585 1.986.635a3.1 3.1 0 0 0 1.757-.407q.81-.452 1.343-1.39t.507-1.865a3.1 3.1 0 0 0-.55-1.718q-.534-.797-1.562-1.381-1.018-.578-1.987-.635a3.2 3.2 0 0 0-1.768.4q-.798.46-1.331 1.397t-.518 1.859a3.2 3.2 0 0 0 .56 1.724q.546.803 1.563 1.381m3.427 5.811 2.154-2.771 1.212.941.784.643 5.728 4.451.334.227 1.909 1.484-2.153 2.771-1.263-.981 1.228-1.58-7.441-5.784-1.229 1.58zm8.906-7.963 6.918 5.377-5.576 7.175-1.355-1.053 5.129-6.6.138 1.094-5.451-4.236.92.024q-.387.604-.798 1.175-.41.57-.793 1.063-1.005 1.293-1.9 2.063-.894.77-1.628.973-.735.203-1.248-.195l-.19-.922q.86-.154 1.819-.941.967-.78 2.092-2.226.487-.627.972-1.336.486-.71.951-1.435m6.621 18.874q-1.149-1.204-1.558-2.556t-.077-2.64q.344-1.299 1.434-2.34t2.394-1.314q1.313-.282 2.643.19 1.332.472 2.481 1.677 1.149 1.203 1.558 2.555t.067 2.65q-.333 1.29-1.424 2.33t-2.403 1.323q-1.304.273-2.634-.2-1.332-.471-2.481-1.675m1.11-1.06q.817.856 1.719 1.18a3.12 3.12 0 0 0 1.8.116q.906-.2 1.686-.944.781-.746 1.022-1.64a3.12 3.12 0 0 0-.031-1.804q-.282-.916-1.099-1.772-.808-.847-1.719-1.18a3.2 3.2 0 0 0-1.809-.126q-.897.21-1.677.954-.781.745-1.031 1.631a3.2 3.2 0 0 0 .04 1.813q.29.925 1.099 1.773m15.009 4.841q.647.88.802 1.75a2.87 2.87 0 0 1-.149 1.642q-.294.765-1.027 1.303t-1.561.598q-.809.061-1.601-.357-.783-.408-1.43-1.288l-2.593-3.531 1.194-.877 2.555 3.478q.523.712 1.162.857.645.154 1.243-.284.597-.44.643-1.102.052-.652-.47-1.364l-2.455-3.342 1.145.11-7.355 5.402-1.016-1.383 7.858-5.772zm4.142 30.846q-.417-1.395-.273-2.645.155-1.254.798-2.192a4.1 4.1 0 0 1 1.72-1.421l.49 1.644q-.683.353-1.08.974a3.2 3.2 0 0 0-.478 1.444q-.068.82.218 1.78.338 1.134 1.006 1.83.669.696 1.575.914t1.965-.097 1.698-.995.817-1.627q.179-.948-.159-2.082-.282-.947-.8-1.593a3.1 3.1 0 0 0-1.179-.95 2.8 2.8 0 0 0-1.44-.236l-.49-1.645a4.05 4.05 0 0 1 2.217.248q1.051.434 1.855 1.4.816.966 1.232 2.36.476 1.595.218 2.96a4.7 4.7 0 0 1-1.154 2.365q-.883.996-2.328 1.427-1.446.43-2.742.085-1.28-.338-2.248-1.352-.964-1.002-1.438-2.596m5.579 3.153-1.794-6.018 1.171-.349 1.794 6.018zm-3.417 3.968 9.629-1.53.269 1.695-8.204 1.303.239-.564 8.908 5.192.291 1.836-10.892-6.417zm5.568 3.814 1.358 1.009-5.4 4.78-.308-1.938zm-4.107 11.628q-.045-1.664.556-2.942.603-1.278 1.714-2.011 1.124-.732 2.632-.774 1.507-.042 2.657.629 1.163.67 1.834 1.914.672 1.242.717 2.906.046 1.663-.556 2.941t-1.727 2.012q-1.111.732-2.618.774-1.507.041-2.671-.629-1.149-.67-1.821-1.914-.67-1.243-.717-2.906m1.533-.042q.033 1.182.485 2.028.453.846 1.258 1.292.807.459 1.885.429 1.078-.029 1.858-.532.78-.489 1.185-1.359t.373-2.052q-.032-1.17-.485-2.028a3.2 3.2 0 0 0-1.258-1.305q-.805-.446-1.885-.417-1.078.03-1.858.52-.78.502-1.185 1.372-.405.882-.373 2.052m-3.197 5.941 3.486.407-.178 1.524-.143 1.004-.842 7.205-.021.403-.281 2.402-3.486-.408.186-1.588 1.988.232 1.094-9.361-1.989-.232zm11.424 3.494-1.017 8.703-9.026-1.055.199-1.704 8.303.97-.865.684.801-6.856.456.799a26 26 0 0 1-1.418-.074q-.7-.056-1.32-.128-1.627-.19-2.749-.557-1.122-.366-1.676-.889t-.479-1.169l.69-.639q.578.657 1.747 1.068 1.168.424 2.988.637.788.092 1.646.14a58 58 0 0 0 1.72.07M203.6 142.995q.437-1.606 1.382-2.655.946-1.05 2.221-1.431 1.288-.377 2.743.018 1.455.396 2.363 1.37.92.978 1.203 2.362.285 1.383-.152 2.989t-1.382 2.656q-.946 1.049-2.234 1.427-1.275.381-2.731-.015-1.454-.396-2.375-1.373-.907-.975-1.191-2.358-.284-1.385.153-2.99m1.48.402q-.31 1.142-.121 2.082t.831 1.601q.639.672 1.68.955 1.041.284 1.933.027a3.13 3.13 0 0 0 1.527-.959q.639-.716.949-1.857.307-1.13.122-2.082a3.2 3.2 0 0 0-.828-1.613q-.643-.66-1.684-.943t-1.929-.039a3.2 3.2 0 0 0-1.53.971q-.643.729-.95 1.857m3.602 15.36q-.42 1.007-1.086 1.589-.67.594-1.483.719-.807.143-1.646-.208-.84-.351-1.318-1.029-.47-.661-.52-1.555-.054-.882.367-1.89l1.687-4.043 1.368.571-1.663 3.983q-.34.816-.135 1.437.201.633.885.919.684.285 1.275-.018.586-.29.926-1.106l1.598-3.827.496 1.038-8.421-3.515.661-1.584 8.997 3.756zm-24.304 19.446q.98-1.077 2.123-1.6 1.154-.515 2.289-.449 1.145.075 2.105.738l-1.154 1.269a2.77 2.77 0 0 0-1.391-.422 3.2 3.2 0 0 0-1.485.337q-.737.366-1.41 1.107-.797.875-1.047 1.807a3.2 3.2 0 0 0 .031 1.821q.282.888 1.099 1.632t1.728.94q.912.195 1.816-.141.904-.337 1.7-1.213.665-.73.95-1.508a3.1 3.1 0 0 0 .205-1.5 2.8 2.8 0 0 0-.542-1.355l1.154-1.27q.761.903.934 2.027t-.241 2.312q-.403 1.197-1.383 2.274-1.12 1.231-2.422 1.716-1.31.495-2.621.234-1.308-.242-2.424-1.256-1.116-1.016-1.49-2.304-.373-1.27-.004-2.623.36-1.341 1.48-2.573m.183 6.406 4.225-4.645.904.822-4.225 4.645zm-5.159-.873 6.316 7.428-1.307 1.111-5.381-6.328.606-.089.2 10.308-1.417 1.204-.185-12.64zm-.36 6.74-.155 1.685-6.893-2.126 1.496-1.271zm-12.077 2.525q1.4-.9 2.804-1.046 1.405-.147 2.608.425 1.21.584 2.024 1.851.816 1.268.837 2.6.028 1.342-.688 2.559t-2.116 2.118q-1.4.9-2.805 1.046t-2.614-.436q-1.202-.573-2.018-1.841t-.843-2.61q-.022-1.33.695-2.549.715-1.218 2.116-2.117m.829 1.29q-.994.64-1.485 1.465a3.1 3.1 0 0 0-.454 1.745q.024.927.608 1.834.584.908 1.416 1.315a3.13 3.13 0 0 0 1.777.311q.953-.104 1.949-.743.984-.633 1.484-1.465.49-.825.466-1.752-.036-.92-.619-1.828-.584-.907-1.406-1.321a3.2 3.2 0 0 0-1.787-.304q-.965.11-1.949.743m-6.737.338 1.452 3.195-1.397.635-.934.396-6.605 3-.356.19-2.201 1-1.452-3.195 1.456-.662.828 1.823 8.581-3.898-.828-1.823zm2.907 11.587-7.977 3.624-3.758-8.274 1.562-.71 3.457 7.611-1.032-.388 6.284-2.855-.448.804q-.355-.624-.669-1.253-.315-.627-.572-1.196-.678-1.491-.943-2.642-.266-1.15-.104-1.894.161-.745.753-1.014l.904.261q-.264.834-.013 2.047.24 1.22.998 2.888.328.723.73 1.482.404.759.828 1.509m-19.791-2.927q1.6-.454 2.988-.186 1.387.269 2.371 1.165.987.91 1.399 2.36t.045 2.73q-.363 1.293-1.402 2.25-1.04.957-2.64 1.411t-2.988.185q-1.387-.268-2.374-1.177-.985-.897-1.396-2.347-.412-1.451-.049-2.743.367-1.28 1.406-2.237 1.04-.957 2.64-1.411m.419 1.476q-1.138.322-1.846.97a3.1 3.1 0 0 0-.943 1.537q-.246.894.049 1.932.294 1.038.974 1.67.666.635 1.609.814.942.178 2.08-.145 1.126-.32 1.847-.97.708-.647.954-1.541.234-.891-.061-1.929-.294-1.038-.961-1.673a3.2 3.2 0 0 0-1.622-.81q-.954-.174-2.08.145M133.26 215.76q-1.08.157-1.921-.115-.854-.271-1.379-.904-.537-.62-.667-1.519-.13-.901.207-1.659.326-.744 1.068-1.245.728-.5 1.809-.656l4.336-.628.212 1.467-4.271.618q-.875.127-1.302.622-.44.498-.335 1.231.106.734.67 1.085.55.354 1.425.227l4.104-.594-.636.959-1.307-9.032 1.698-.245 1.397 9.649zm-29.176-10.744q1.43.279 2.469.987 1.038.72 1.57 1.725.53 1.017.46 2.183l-1.684-.33a2.76 2.76 0 0 0-.36-1.408 3.2 3.2 0 0 0-1.057-1.095q-.696-.441-1.678-.633-1.161-.228-2.088.041a3.2 3.2 0 0 0-1.541.97q-.615.7-.826 1.785-.213 1.084.091 1.966.305.88 1.062 1.479t1.918.826q.969.19 1.782.032a3.1 3.1 0 0 0 1.39-.603q.577-.443.877-1.166l1.684.33a4.04 4.04 0 0 1-1.249 1.848q-.872.73-2.102.993-1.233.275-2.662-.005-1.633-.32-2.723-1.182a4.7 4.7 0 0 1-1.558-2.12q-.471-1.245-.182-2.725.29-1.48 1.199-2.468.894-.977 2.241-1.362 1.334-.388 2.967-.068m-5.383 3.476 6.161 1.207-.234 1.199-6.162-1.207zm-1.925-4.869-3.122 9.236-1.626-.549 2.66-7.87.388.475-8.738 5.472-1.76-.595 10.744-6.661zm-5.966 3.157-1.525.733-1.721-7.004 1.86.629zm-8.38-9.051q1.493.735 2.342 1.864.85 1.128.98 2.453.124 1.337-.542 2.689-.667 1.353-1.796 2.057-1.136.717-2.549.73-1.412.015-2.905-.721t-2.342-1.864q-.85-1.129-.974-2.465-.129-1.325.537-2.678t1.802-2.069q1.13-.703 2.542-.718 1.413-.014 2.905.722m-.678 1.376q-1.06-.523-2.02-.518a3.13 3.13 0 0 0-1.73.51q-.781.5-1.259 1.467t-.395 1.892a3.1 3.1 0 0 0 .649 1.682q.58.763 1.641 1.287 1.05.517 2.02.517a3.2 3.2 0 0 0 1.742-.504q.77-.504 1.247-1.473.477-.967.407-1.886a3.2 3.2 0 0 0-.66-1.688q-.592-.77-1.642-1.286m-3.76-5.598-1.99 2.891-1.263-.87-.82-.596-5.976-4.113-.347-.208-1.991-1.371 1.99-2.891 1.317.907-1.135 1.649 7.763 5.344 1.135-1.649zm-8.43 8.464-7.218-4.969 5.153-7.485 1.414.973-4.74 6.886-.2-1.085 5.685 3.914-.92.03q.352-.626.729-1.219t.73-1.107q.93-1.35 1.778-2.169.85-.821 1.57-1.066.722-.245 1.257.123l.242.909q-.85.204-1.76 1.045-.922.833-1.961 2.343-.45.654-.894 1.39-.443.735-.866 1.487m-7.7-18.46q1.218 1.136 1.704 2.462.487 1.326.229 2.632-.267 1.316-1.296 2.417-1.03 1.103-2.314 1.451-1.294.357-2.65-.038-1.357-.394-2.573-1.53-1.217-1.136-1.704-2.462t-.22-2.641q.26-1.306 1.288-2.408 1.029-1.103 2.322-1.46 1.286-.348 2.642.047t2.573 1.53m-1.046 1.122q-.864-.807-1.785-1.079a3.1 3.1 0 0 0-1.803-.012q-.892.252-1.629 1.04-.736.79-.925 1.697a3.1 3.1 0 0 0 .135 1.798q.335.9 1.2 1.706.854.799 1.784 1.08a3.2 3.2 0 0 0 1.813.02q.882-.26 1.62-1.049.736-.79.934-1.688a3.2 3.2 0 0 0-.145-1.807q-.344-.908-1.199-1.706m-15.265-3.978q-.695-.843-.9-1.702-.212-.87.056-1.648.25-.78.952-1.359.702-.58 1.524-.685.805-.108 1.619.265.806.363 1.5 1.205l2.79 3.378-1.143.944-2.748-3.328q-.563-.682-1.208-.789-.654-.118-1.225.353-.57.473-.58 1.136-.015.655.547 1.336l2.64 3.198-1.15-.045 7.038-5.811 1.092 1.323-7.518 6.208zm-5.902-30.549q.496 1.368.426 2.625-.082 1.26-.67 2.234a4.1 4.1 0 0 1-1.634 1.518l-.585-1.613q.66-.392 1.022-1.034.361-.643.394-1.47.02-.823-.322-1.764-.403-1.113-1.11-1.768a3.18 3.18 0 0 0-1.626-.822q-.916-.165-1.956.211-1.038.377-1.637 1.091a3.2 3.2 0 0 0-.721 1.672q-.125.958.28 2.07.335.929.89 1.543.543.62 1.233.881.677.267 1.451.152l.585 1.613a4.05 4.05 0 0 1-2.228-.119q-1.075-.37-1.934-1.29-.87-.915-1.367-2.284-.567-1.565-.388-2.943a4.7 4.7 0 0 1 1.014-2.428q.825-1.044 2.242-1.559t2.732-.243q1.299.262 2.323 1.218 1.02.945 1.586 2.509m-5.752-2.824 2.14 5.903-1.15.416-2.14-5.903zm3.179-4.157-9.52 2.106-.37-1.675 8.11-1.795-.205.578-9.203-4.648-.402-1.815 11.259 5.751zm-5.788-3.473-1.416-.925 5.103-5.097.424 1.917zm3.426-11.854q.138 1.658-.39 2.968-.531 1.31-1.599 2.104-1.08.795-2.584.921-1.503.125-2.688-.48-1.2-.603-1.94-1.807t-.878-2.862.39-2.968q.53-1.309 1.611-2.105 1.07-.793 2.572-.919t2.7.478q1.186.605 1.927 1.808.74 1.203.879 2.862m-1.529.128q-.099-1.179-.598-1.998a3.1 3.1 0 0 0-1.328-1.219q-.831-.414-1.906-.324t-1.825.636q-.752.533-1.107 1.424-.357.89-.257 2.069.097 1.166.598 1.998.498.819 1.329 1.233.83.4 1.905.31 1.074-.09 1.826-.623.75-.546 1.106-1.436.354-.905.257-2.07m2.859-6.113-3.504-.207.09-1.532.086-1.01.428-7.242-.002-.404.143-2.413 3.504.207-.095 1.596-1.998-.118-.556 9.408 1.998.118zm-11.605-2.835.517-8.746 9.071.535-.101 1.713-8.345-.493.825-.732-.407 6.891-.502-.772q.718-.023 1.42-.007.703.015 1.326.052 1.635.096 2.776.398t1.724.792.545 1.14l-.652.677q-.614-.622-1.805-.966-1.19-.357-3.02-.465a27 27 0 0 0-1.651-.045q-.86.001-1.721.028m11.812-16.14q-.342 1.63-1.225 2.732-.882 1.102-2.134 1.557-1.264.451-2.74.142-1.475-.31-2.438-1.23-.975-.923-1.339-2.288t-.021-2.993 1.225-2.732q.883-1.102 2.146-1.554 1.253-.455 2.727-.144 1.476.31 2.451 1.232.963.92 1.327 2.285t.021 2.993m-1.5-.315q.242-1.158 0-2.086a3.12 3.12 0 0 0-.924-1.549q-.677-.633-1.733-.856-1.056-.221-1.93.086a3.12 3.12 0 0 0-1.47 1.046q-.595.752-.84 1.909-.24 1.146 0 2.086.245.928.921 1.562.68.621 1.736.843t1.928-.073a3.2 3.2 0 0 0 1.471-1.059q.6-.764.84-1.909m-4.498-15.118q.36-1.03.99-1.65.635-.633 1.44-.805.795-.19 1.655.11.858.3 1.375.95.51.632.611 1.522.105.877-.254 1.908l-1.447 4.135-1.398-.49 1.424-4.073q.293-.834.05-1.443-.237-.62-.937-.864-.7-.245-1.271.092-.569.324-.86 1.159l-1.37 3.914-.556-1.007 8.614 3.013-.566 1.62-9.204-3.22zM55.76 63.753q-.963 1.092-2.099 1.632-1.145.532-2.281.484a4.1 4.1 0 0 1-2.117-.706l1.135-1.287q.66.392 1.398.401t1.479-.36q.731-.377 1.393-1.128.783-.887 1.02-1.822a3.2 3.2 0 0 0-.06-1.82q-.294-.885-1.123-1.616-.828-.73-1.742-.913a3.2 3.2 0 0 0-1.813.169q-.9.35-1.682 1.238-.654.74-.927 1.522a3.1 3.1 0 0 0-.183 1.504q.092.722.564 1.346l-1.136 1.287a4.05 4.05 0 0 1-.964-2.012q-.19-1.121.206-2.316.385-1.203 1.348-2.294 1.101-1.248 2.396-1.753 1.303-.514 2.617-.274 1.313.222 2.443 1.22 1.131.997 1.524 2.28.392 1.265.045 2.622-.34 1.348-1.44 2.596m-.28-6.402-4.154 4.708-.917-.808 4.154-4.709zm5.174.796-6.403-7.353 1.294-1.127L61 55.931l-.606.097-.321-10.305 1.402-1.221.335 12.637zm.281-6.744.135-1.686 6.917 2.043-1.48 1.29zm12.035-2.685q-1.385.921-2.789 1.088-1.402.168-2.613-.385-1.218-.564-2.053-1.82-.836-1.256-.876-2.586-.05-1.341.648-2.57.698-1.23 2.083-2.15 1.386-.921 2.789-1.089t2.62.396q1.212.554 2.046 1.81.835 1.255.884 2.597.042 1.33-.656 2.559-.698 1.228-2.083 2.15m-.85-1.278q.986-.654 1.463-1.487.477-.832.427-1.752-.038-.927-.635-1.825-.599-.9-1.437-1.293a3.12 3.12 0 0 0-1.781-.283q-.952.117-1.937.773-.975.647-1.462 1.487a3.2 3.2 0 0 0-.439 1.759q.049.92.647 1.818.597.898 1.426 1.3.84.393 1.791.276.963-.126 1.938-.773m6.729-.439-1.5-3.174 1.388-.655.928-.41 6.56-3.097.352-.196 2.187-1.032 1.499 3.174-1.446.682-.855-1.81-8.522 4.025.855 1.81zm-3.08-11.542 7.924-3.742 3.88 8.217-1.552.732-3.57-7.558 1.04.372-6.243 2.948.437-.81q.364.618.688 1.242t.59 1.188q.699 1.481.981 2.627.284 1.148.132 1.893-.15.747-.738 1.025l-.907-.248q.25-.837-.019-2.047-.257-1.215-1.04-2.873a27 27 0 0 0-.752-1.47 57 57 0 0 0-.85-1.496m19.83 2.633q-1.593.478-2.984.23-1.39-.247-2.388-1.13-1-.893-1.434-2.338-.434-1.444-.086-2.73.344-1.296 1.368-2.27 1.026-.97 2.62-1.45 1.593-.477 2.984-.23 1.39.248 2.392 1.142.998.882 1.43 2.326.434 1.444.09 2.742-.348 1.286-1.372 2.258-1.026.972-2.62 1.45m-.44-1.47q1.133-.339 1.832-.996.699-.658.919-1.552.233-.898-.077-1.931-.31-1.034-.999-1.655a3.1 3.1 0 0 0-1.62-.79q-.945-.164-2.08.176-1.12.336-1.83.997a3.2 3.2 0 0 0-.932 1.555q-.22.894.09 1.928t.985 1.658q.69.622 1.634.786.957.16 2.078-.175m11.131-11.176q1.077-.176 1.923.081.858.255 1.395.879.548.609.693 1.507.147.897-.176 1.662-.312.749-1.045 1.264-.72.512-1.798.688l-4.323.706-.239-1.463 4.259-.695q.873-.142 1.291-.645.432-.506.312-1.237-.119-.73-.689-1.073-.556-.343-1.429-.201l-4.093.668.619-.97 1.47 9.006-1.693.277-1.571-9.623z"/><circle cx="124" cy="28" r="2" fill="#fff8f8" fill-opacity=".7"/><circle cx="203" cy="79" r="2" fill="#fff8f8" fill-opacity=".7"/><circle cx="200" cy="169" r="2" fill="#fff8f8" fill-opacity=".7"/><circle cx="119" cy="212" r="2" fill="#fff8f8" fill-opacity=".7"/><circle cx="41" cy="74" r="2" fill="#fff8f8" fill-opacity=".7"/><circle cx="42" cy="167" r="2" fill="#fff8f8" fill-opacity=".7"/></svg>