<svg width="208" height="88" viewBox="0 0 208 88" fill="none" xmlns="http://www.w3.org/2000/svg">
<circle cx="41.4888" cy="42.5591" r="28.6067" stroke="#E74F10" stroke-width="3.76406"/>
<path d="M90.2334 42.9354L27.9385 36.1602V41.618L77.6239 42.9354L27.9385 45.9467V50.8399L90.2334 42.9354Z" fill="#E74F10"/>
<path d="M34.3369 39.3594V46.8875" stroke="#E74F10" stroke-width="3.76406"/>
<path d="M39.9834 39.3594V46.8875" stroke="#E74F10" stroke-width="3.76406"/>
<path d="M46.0059 39.3594V46.8875" stroke="#E74F10" stroke-width="3.76406"/>
<path d="M52.0283 39.3594V46.8875" stroke="#E74F10" stroke-width="3.76406"/>
<path d="M35.0903 10H21.3516C67.6493 25.2444 65.7673 61.7556 22.2926 77H35.0903C65.548 50.3311 65.3609 35.6648 35.0903 10Z" fill="#E74F10"/>
<path d="M88.398 54.384C94.118 54.384 98.148 58.31 98.148 63.9C98.148 69.49 94.118 73.416 88.398 73.416C84.836 73.416 82.028 72.116 80.234 69.776L84.108 66.318C85.174 67.67 86.448 68.45 88.086 68.45C89.802 68.45 91.024 67.566 91.596 66.058H85.928V61.638H91.57C90.972 60.208 89.75 59.35 88.086 59.35C86.448 59.35 85.174 60.13 84.108 61.482L80.234 58.024C82.028 55.684 84.836 54.384 88.398 54.384ZM117.483 54.8L112.075 63.64L117.457 73H110.541L107.057 66.422H105.341V73H99.2051V54.8H105.341V61.586H107.213L111.087 54.8H117.483ZM126.798 73.416C120.87 73.416 116.528 69.412 116.528 63.9C116.528 58.388 120.87 54.384 126.798 54.384C132.726 54.384 137.068 58.388 137.068 63.9C137.068 69.412 132.726 73.416 126.798 73.416ZM126.798 68.45C129.06 68.45 130.88 66.734 130.88 63.9C130.88 61.066 129.06 59.35 126.798 59.35C124.536 59.35 122.716 61.066 122.716 63.9C122.716 66.734 124.536 68.45 126.798 68.45ZM155.746 68.242H158.138V76.562H152.522V73H142.174V76.562H136.558V68.242H137.078C139.34 68.242 139.938 64.966 140.146 60.338L140.354 54.8H155.746V68.242ZM145.476 60.858C145.346 64.082 145.008 66.682 144.098 68.242H149.714V59.558H145.528L145.476 60.858ZM168.415 73.416C162.487 73.416 158.145 69.412 158.145 63.9C158.145 58.388 162.487 54.384 168.415 54.384C174.343 54.384 178.685 58.388 178.685 63.9C178.685 69.412 174.343 73.416 168.415 73.416ZM168.415 68.45C170.677 68.45 172.497 66.734 172.497 63.9C172.497 61.066 170.677 59.35 168.415 59.35C166.153 59.35 164.333 61.066 164.333 63.9C164.333 66.734 166.153 68.45 168.415 68.45ZM188.615 54.8C193.685 54.8 196.909 57.452 196.909 61.664C196.909 65.876 193.685 68.528 188.615 68.528H185.989V73H179.853V54.8H188.615ZM188.225 63.796C189.915 63.796 190.721 62.99 190.721 61.664C190.721 60.338 189.915 59.532 188.225 59.532H185.989V63.796H188.225Z" fill="#E74F10"/>
<rect x="1.5" y="1.5" width="205" height="85" stroke="#E74F10" stroke-width="3"/>
</svg>
