<svg xmlns="http://www.w3.org/2000/svg">
    <symbol id="icon-location" viewBox="0 0 47 47">
        <circle cx="23.5" cy="23.5" r="23.5" fill="white" />
        <path
            d="M24.0001 14C19.5891 14 16.0001 17.589 16.0001 21.995C15.9711 28.44 23.6961 33.784 24.0001 34C24.0001 34 32.0291 28.44 32.0001 22C32.0001 17.589 28.4111 14 24.0001 14ZM24.0001 26C21.7901 26 20.0001 24.21 20.0001 22C20.0001 19.79 21.7901 18 24.0001 18C26.2101 18 28.0001 19.79 28.0001 22C28.0001 24.21 26.2101 26 24.0001 26Z"
            fill="#E74F10" />
    </symbol>

    <symbol id="icon-phone" viewBox="0 0 47 47">
        <circle cx="23.5" cy="23.5" r="23.5" fill="white" />
        <path
            d="M18.62 22.79C20.06 25.62 22.38 27.93 25.21 29.38L27.41 27.18C27.68 26.91 28.08 26.82 28.43 26.94C29.55 27.31 30.76 27.51 32 27.51C32.55 27.51 33 27.96 33 28.51V32C33 32.55 32.55 33 32 33C22.61 33 15 25.39 15 16C15 15.45 15.45 15 16 15H19.5C20.05 15 20.5 15.45 20.5 16C20.5 17.25 20.7 18.45 21.07 19.57C21.18 19.92 21.1 20.31 20.82 20.59L18.62 22.79Z"
            fill="#E74F10" />
    </symbol>

    <symbol id="icon-email" viewBox="0 0 47 47">
        <circle cx="23.5" cy="23.5" r="23.5" fill="white" />
        <path
            d="M30.667 20.6668L24.0003 24.8335L17.3337 20.6668V19.0002L24.0003 23.1668L30.667 19.0002M30.667 17.3335H17.3337C16.4087 17.3335 15.667 18.0752 15.667 19.0002V29.0002C15.667 29.4422 15.8426 29.8661 16.1551 30.1787C16.4677 30.4912 16.8916 30.6668 17.3337 30.6668H30.667C31.109 30.6668 31.5329 30.4912 31.8455 30.1787C32.1581 29.8661 32.3337 29.4422 32.3337 29.0002V19.0002C32.3337 18.5581 32.1581 18.1342 31.8455 17.8217C31.5329 17.5091 31.109 17.3335 30.667 17.3335Z"
            fill="#E74F10" />
    </symbol>

    <symbol id="icon-group" viewBox="0 0 72 72" fill="none">
        <path
            d="M25.6226 22.2679C25.4589 22.1652 25.2983 22.0575 25.1413 21.9449C24.8844 21.7565 24.6425 21.5487 24.4178 21.3234L24.3992 21.3019L24.3899 21.2927C24.3868 21.2927 24.3837 21.2834 25.5605 20.2805L24.3837 21.2834C24.2068 21.0797 24.0869 20.8336 24.0359 20.5697L22.6386 13.3829C22.557 12.9285 22.6094 12.4605 22.7895 12.0348C22.9696 11.6092 23.2698 11.2441 23.654 10.9832C24.0109 10.7273 24.4281 10.5664 24.8657 10.5158C25.3034 10.4651 25.7468 10.5265 26.1536 10.694C27.1876 11.1432 28.5291 11.497 29.8953 11.2755C31.1902 11.0601 32.7148 10.2971 34.1401 8.10048C34.3656 7.76221 34.6723 7.48463 35.0326 7.29258C35.393 7.10052 35.7958 7 36.205 7C36.6142 7 37.017 7.10052 37.3773 7.29258C37.7377 7.48463 38.0444 7.76221 38.2699 8.10048C39.6952 10.2971 41.2198 11.0632 42.5146 11.2755C43.8809 11.497 45.2223 11.1432 46.2563 10.694C46.6634 10.5255 47.1072 10.4633 47.5454 10.5134C47.9836 10.5635 48.4015 10.7242 48.7591 10.9801C49.1433 11.2416 49.4432 11.6074 49.6227 12.0336C49.8023 12.4599 49.8539 12.9283 49.7714 13.3829L48.3741 20.5697C48.323 20.8336 48.2031 21.0797 48.0263 21.2834L48.0232 21.2896L48.0201 21.2927L48.0108 21.3019L47.9921 21.3234C47.928 21.3931 47.8606 21.4598 47.7903 21.5234C47.6242 21.6731 47.4501 21.8138 47.2686 21.9449C46.9767 22.1643 46.5886 22.4002 46.1042 22.6525C46.1601 22.8268 46.2139 23.0032 46.2657 23.1816C47.6014 22.1476 49.2276 21.5487 50.9208 21.4673C52.614 21.3859 54.291 21.826 55.7216 22.7271C57.1521 23.6282 58.2659 24.9461 58.91 26.4997C59.554 28.0533 59.6967 29.7664 59.3184 31.4036C58.9402 33.0408 58.0595 34.5217 56.7974 35.643C55.5353 36.7642 53.9538 37.4708 52.27 37.6655C50.5863 37.8602 48.883 37.5336 47.3942 36.7305C45.9054 35.9274 44.7041 34.6872 43.9554 33.1804C42.9357 34.3296 41.6804 35.2502 40.2733 35.881C38.8662 36.5118 37.3395 36.8381 35.7951 36.8384C34.2502 36.8386 32.7229 36.5124 31.3152 35.8816C29.9075 35.2509 28.6518 34.33 27.6317 33.1804C26.883 34.6872 25.6817 35.9274 24.1929 36.7305C22.7041 37.5336 21.0008 37.8602 19.3171 37.6655C17.6333 37.4708 16.0518 36.7642 14.7897 35.643C13.5276 34.5217 12.6469 33.0408 12.2687 31.4036C11.8904 29.7664 12.0331 28.0533 12.6771 26.4997C13.3212 24.9461 14.435 23.6282 15.8655 22.7271C17.2961 21.826 18.9731 21.3859 20.6663 21.4673C22.3595 21.5487 23.9857 22.1476 25.3214 23.1816C25.4084 22.8699 25.5088 22.5653 25.6226 22.2679ZM30.4046 14.3089C28.8918 14.538 27.3455 14.3943 25.9021 13.8905L26.9827 19.4683C27.1473 19.5852 27.3895 19.7452 27.7279 19.9174C27.9406 19.9177 28.1509 19.9613 28.3459 20.0454C28.5408 20.1296 28.7163 20.2525 28.8613 20.4066C30.3207 20.9358 32.6558 21.4557 36.205 21.4557C38.9965 21.4557 41.0335 21.1358 42.4898 20.7389C42.6679 20.3988 42.9684 20.1373 43.3319 20.0062C43.6953 19.8752 44.0952 19.8841 44.4523 20.0313C44.7938 19.8733 45.1202 19.6849 45.4273 19.4683L46.511 13.8905C45.0676 14.3943 43.5212 14.538 42.0085 14.3089C39.9715 13.9767 37.9408 12.8568 36.205 10.5463C34.4723 12.8568 32.4384 13.9767 30.4015 14.3089M28.4639 23.5231C28.0488 24.6972 27.9273 25.9535 28.1099 27.1842C28.2279 27.5698 28.3189 27.9657 28.3831 28.3718C28.8788 29.935 29.8652 31.3007 31.1987 32.2698C32.5322 33.239 34.1432 33.7611 35.797 33.7601C37.4508 33.759 39.0611 33.235 40.3934 32.2641C41.7256 31.2933 42.7103 29.9264 43.204 28.3625C43.2661 27.9626 43.3551 27.5739 43.471 27.1965C43.6449 26.0378 43.5493 24.855 43.1916 23.7385C41.4527 24.2 39.1673 24.5322 36.205 24.5322C32.7893 24.5322 30.2773 24.0892 28.4639 23.5231ZM46.4985 27.9226C46.4344 28.2918 46.3516 28.6538 46.2501 29.0086C46.2294 29.1973 46.2191 29.3901 46.2191 29.587C46.2219 30.8544 46.7053 32.0746 47.5733 33.0056C48.4413 33.9366 49.6307 34.5106 50.9057 34.6137C52.1807 34.7168 53.4483 34.3416 54.4572 33.5624C55.4662 32.7832 56.1429 31.6569 56.3532 30.4067C56.5635 29.1565 56.2921 27.8736 55.5927 26.8123C54.8934 25.751 53.8171 24.9888 52.5773 24.6767C51.3374 24.3645 50.0245 24.5252 48.8986 25.127C47.7727 25.7288 46.9161 26.7246 46.4985 27.9226ZM25.337 29.024C25.2349 28.6589 25.15 28.2893 25.0823 27.9164C24.6517 26.6967 23.7663 25.6866 22.6077 25.0932C21.4491 24.4999 20.1052 24.3685 18.8519 24.7259C17.5986 25.0832 16.5308 25.9023 15.8678 27.0151C15.2048 28.1278 14.9967 29.4498 15.2864 30.7097C15.576 31.9696 16.3414 33.0719 17.4254 33.7903C18.5094 34.5088 19.8299 34.7889 21.1158 34.5733C22.4017 34.3576 23.5555 33.6625 24.3405 32.6305C25.1254 31.5986 25.482 30.3082 25.337 29.024ZM16.7047 39.8626C16.3106 39.5671 15.855 39.3624 15.371 39.2634C14.887 39.1644 14.3869 39.1736 13.9069 39.2904C13.4271 39.4183 12.9508 39.5588 12.4786 39.7119L10.3515 40.4041C9.04611 40.8236 7.86902 41.5634 6.92978 42.5548C5.99053 43.5462 5.31967 44.7568 4.97962 46.0741L4.95789 46.1572L4.05429 52.6364C3.70341 55.1468 5.06346 57.7865 7.84257 58.4418C8.61057 58.6284 9.52556 58.8079 10.5875 58.9802C10.789 59.0125 10.9949 59.0052 11.1934 58.9587C11.392 58.9122 11.5794 58.8274 11.7449 58.7091C11.9104 58.5908 12.0508 58.4414 12.158 58.2694C12.2653 58.0974 12.3372 57.9061 12.3699 57.7065C12.4025 57.5069 12.3951 57.3029 12.3482 57.1062C12.3012 56.9094 12.2156 56.7237 12.0962 56.5597C11.9769 56.3958 11.8261 56.2567 11.6524 56.1505C11.4788 56.0442 11.2858 55.9729 11.0843 55.9406C10.2369 55.808 9.39481 55.6438 8.55986 55.4483C7.61589 55.2268 6.9576 54.2977 7.13149 53.0579L8.01025 46.754C8.44807 45.1543 9.68703 43.8621 11.3203 43.3268L13.4474 42.6346C13.8614 42.5013 14.2764 42.3782 14.6925 42.2654L14.7143 42.2715C14.7741 42.2907 14.8306 42.3187 14.8819 42.3546C15.2825 42.6407 15.8228 42.9853 16.4873 43.3022C16.8561 43.4664 17.2749 43.4816 17.6548 43.3446C18.0347 43.2076 18.3457 42.9291 18.5216 42.5685C18.6975 42.2079 18.7246 41.7935 18.5969 41.4134C18.4692 41.0333 18.197 40.7176 17.838 40.5333C17.441 40.3434 17.0617 40.119 16.7047 39.8626ZM55.2954 39.8626C55.9972 39.3581 57.0157 39.0073 58.0901 39.2904C58.5703 39.4175 59.0464 39.558 59.5184 39.7119L61.6486 40.4041C64.3035 41.2686 66.3373 43.4037 67.0205 46.0741L67.0391 46.1572L67.9458 52.6364C68.2967 55.1468 66.9335 57.7865 64.1575 58.4418C63.3895 58.6284 62.4735 58.8079 61.4095 58.9802C61.208 59.0123 61.0022 59.0048 60.8037 58.9581C60.6051 58.9114 60.4179 58.8264 60.2525 58.708C60.0871 58.5896 59.9469 58.4401 59.8399 58.268C59.7329 58.0959 59.6611 57.9045 59.6287 57.705C59.5962 57.5054 59.6038 57.3014 59.651 57.1047C59.6981 56.9081 59.7839 56.7225 59.9034 56.5587C60.0229 56.3948 60.1738 56.2559 60.3475 56.1499C60.5212 56.0438 60.7143 55.9727 60.9157 55.9406C61.9052 55.7806 62.7467 55.6165 63.4402 55.4483C64.3811 55.2268 65.0425 54.2977 64.8686 53.0579L63.9898 46.754C63.7664 45.9565 63.3472 45.2261 62.7697 44.6281C62.1921 44.0301 61.4741 43.583 60.6797 43.3268L58.5496 42.6346C58.1394 42.4993 57.7252 42.3762 57.3076 42.2654L57.2982 42.2685H57.2827C57.2238 42.2888 57.1683 42.3179 57.1181 42.3546C56.6123 42.7169 56.0751 43.034 55.5128 43.3022C55.144 43.4664 54.7252 43.4816 54.3453 43.3446C53.9654 43.2076 53.6544 42.9291 53.4785 42.5685C53.3025 42.2079 53.2755 41.7935 53.4032 41.4134C53.5308 41.0333 53.8031 40.7176 54.162 40.5333C54.6309 40.3087 55.016 40.0626 55.2954 39.8626Z"
            fill="#E74F10" />
        <path
            d="M45.3118 41.1631C43.7134 40.7195 42.1584 41.2451 41.0494 41.9683C39.863 42.7401 37.9084 43.6881 35.4984 43.6881C33.0884 43.6881 31.1369 42.7401 29.9536 41.9683C28.8384 41.2451 27.2896 40.7225 25.6881 41.1631C25.2028 41.2968 24.7206 41.4416 24.2415 41.5976L21.2677 42.5547C19.544 43.1037 17.9898 44.0713 16.7496 45.3675C15.5094 46.6637 14.6234 48.2465 14.174 49.9686L14.1616 50.0203L13.1177 55.7144C12.5106 59.0263 14.2732 62.4993 17.9098 63.3319C21.4845 64.1523 27.1966 65 35.5015 65C43.8063 65 49.5153 64.1492 53.09 63.3319C56.7298 62.4993 58.4893 59.0263 57.8821 55.7144L56.8382 50.0203L56.8258 49.9686C56.3765 48.2465 55.4905 46.6637 54.2503 45.3675C53.0101 44.0713 51.4559 43.1037 49.7322 42.5547L46.7584 41.5976C46.2793 41.4416 45.7971 41.2968 45.3118 41.1631ZM42.7624 44.4993C43.4129 44.074 44.0325 43.9646 44.4692 44.0861C44.9132 44.2076 45.3541 44.3393 45.7919 44.4811L48.7657 45.4413C49.9839 45.8308 51.0835 46.513 51.9643 47.4257C52.8451 48.3385 53.4791 49.4529 53.8087 50.6675L54.8309 56.2522C55.2026 58.2728 54.1309 59.9743 52.3869 60.3724C49.0631 61.132 43.5895 61.9615 35.5015 61.9615C27.4135 61.9615 21.9368 61.135 18.613 60.3724C16.869 59.9743 15.7941 58.2728 16.1658 56.2522L17.1881 50.6644C17.5156 49.448 18.1497 48.3318 19.032 47.4186C19.9143 46.5054 21.0165 45.8244 22.2373 45.4382L25.211 44.4841C25.6447 44.3424 26.0846 44.2107 26.5306 44.0891C26.9674 43.9676 27.5838 44.074 28.2374 44.4993C29.7181 45.4625 32.2644 46.7266 35.5015 46.7266C38.7323 46.7266 41.2817 45.4625 42.7624 44.4993Z"
            fill="#E74F10" />
    </symbol>

    <symbol id="icon-calendar" viewBox="0 0 72 72" fill="none">
        <path
            d="M49 15.7778V10M23 15.7778V10M10.7222 24.4444H61.2778M10 30.3493C10 24.2393 10 21.1829 11.2596 18.8487C12.3985 16.7667 14.1658 15.0975 16.3093 14.0791C18.7822 12.8889 22.0178 12.8889 28.4889 12.8889H43.5111C49.9822 12.8889 53.2178 12.8889 55.6907 14.0791C57.866 15.1249 59.6311 16.7947 60.7404 18.8458C62 21.1858 62 24.2422 62 30.3522V44.5424C62 50.6524 62 53.7089 60.7404 56.0431C59.6015 58.1251 57.8342 59.7943 55.6907 60.8127C53.2178 62 49.9822 62 43.5111 62H28.4889C22.0178 62 18.7822 62 16.3093 60.8098C14.1662 59.7922 12.399 58.124 11.2596 56.0431C10 53.7031 10 50.6467 10 44.5367V30.3493Z"
            stroke="#E74F10" stroke-width="3" stroke-linecap="round" stroke-linejoin="round" />
        <path
            d="M16.0341 48V46.4773L20.0739 42.517C20.4602 42.1269 20.7822 41.7803 21.0398 41.4773C21.2973 41.1742 21.4905 40.8807 21.6193 40.5966C21.7481 40.3125 21.8125 40.0095 21.8125 39.6875C21.8125 39.3201 21.7292 39.0057 21.5625 38.7443C21.3958 38.4792 21.1667 38.2746 20.875 38.1307C20.5833 37.9867 20.2519 37.9148 19.8807 37.9148C19.4981 37.9148 19.1629 37.9943 18.875 38.1534C18.5871 38.3087 18.3636 38.5303 18.2045 38.8182C18.0492 39.1061 17.9716 39.4489 17.9716 39.8466H15.9659C15.9659 39.108 16.1345 38.4659 16.4716 37.9205C16.8087 37.375 17.2727 36.9527 17.8636 36.6534C18.4583 36.3542 19.1402 36.2045 19.9091 36.2045C20.6894 36.2045 21.375 36.3504 21.9659 36.642C22.5568 36.9337 23.0152 37.3333 23.3409 37.8409C23.6705 38.3485 23.8352 38.928 23.8352 39.5795C23.8352 40.0152 23.7519 40.4432 23.5852 40.8636C23.4186 41.2841 23.125 41.75 22.7045 42.2614C22.2879 42.7727 21.7027 43.392 20.9489 44.1193L18.9432 46.1591V46.2386H24.0114V48H16.0341ZM30.2727 48.2216C29.3371 48.2216 28.5341 47.9848 27.8636 47.5114C27.197 47.0341 26.6837 46.3466 26.3239 45.4489C25.9678 44.5473 25.7898 43.4621 25.7898 42.1932C25.7936 40.9242 25.9735 39.8447 26.3295 38.9545C26.6894 38.0606 27.2027 37.3788 27.8693 36.9091C28.5398 36.4394 29.3409 36.2045 30.2727 36.2045C31.2045 36.2045 32.0057 36.4394 32.6761 36.9091C33.3466 37.3788 33.8598 38.0606 34.2159 38.9545C34.5758 39.8485 34.7557 40.928 34.7557 42.1932C34.7557 43.4659 34.5758 44.553 34.2159 45.4545C33.8598 46.3523 33.3466 47.0379 32.6761 47.5114C32.0095 47.9848 31.2083 48.2216 30.2727 48.2216ZM30.2727 46.4432C31 46.4432 31.5739 46.0852 31.9943 45.3693C32.4186 44.6496 32.6307 43.5909 32.6307 42.1932C32.6307 41.2689 32.5341 40.4924 32.3409 39.8636C32.1477 39.2348 31.875 38.7614 31.5227 38.4432C31.1705 38.1212 30.7538 37.9602 30.2727 37.9602C29.5492 37.9602 28.9773 38.3201 28.5568 39.0398C28.1364 39.7557 27.9242 40.8068 27.9205 42.1932C27.9167 43.1212 28.0095 43.9015 28.1989 44.5341C28.392 45.1667 28.6648 45.6439 29.017 45.9659C29.3693 46.2841 29.7879 46.4432 30.2727 46.4432ZM40.9446 48.2216C40.009 48.2216 39.206 47.9848 38.5355 47.5114C37.8688 47.0341 37.3556 46.3466 36.9957 45.4489C36.6397 44.5473 36.4616 43.4621 36.4616 42.1932C36.4654 40.9242 36.6454 39.8447 37.0014 38.9545C37.3613 38.0606 37.8745 37.3788 38.5412 36.9091C39.2116 36.4394 40.0128 36.2045 40.9446 36.2045C41.8764 36.2045 42.6776 36.4394 43.348 36.9091C44.0185 37.3788 44.5317 38.0606 44.8878 38.9545C45.2476 39.8485 45.4276 40.928 45.4276 42.1932C45.4276 43.4659 45.2476 44.553 44.8878 45.4545C44.5317 46.3523 44.0185 47.0379 43.348 47.5114C42.6813 47.9848 41.8802 48.2216 40.9446 48.2216ZM40.9446 46.4432C41.6719 46.4432 42.2457 46.0852 42.6662 45.3693C43.0904 44.6496 43.3026 43.5909 43.3026 42.1932C43.3026 41.2689 43.206 40.4924 43.0128 39.8636C42.8196 39.2348 42.5469 38.7614 42.1946 38.4432C41.8423 38.1212 41.4257 37.9602 40.9446 37.9602C40.2211 37.9602 39.6491 38.3201 39.2287 39.0398C38.8082 39.7557 38.5961 40.8068 38.5923 42.1932C38.5885 43.1212 38.6813 43.9015 38.8707 44.5341C39.0639 45.1667 39.3366 45.6439 39.6889 45.9659C40.0412 46.2841 40.4598 46.4432 40.9446 46.4432ZM51.6165 48.2216C50.6809 48.2216 49.8778 47.9848 49.2074 47.5114C48.5407 47.0341 48.0275 46.3466 47.6676 45.4489C47.3116 44.5473 47.1335 43.4621 47.1335 42.1932C47.1373 40.9242 47.3172 39.8447 47.6733 38.9545C48.0331 38.0606 48.5464 37.3788 49.2131 36.9091C49.8835 36.4394 50.6847 36.2045 51.6165 36.2045C52.5483 36.2045 53.3494 36.4394 54.0199 36.9091C54.6903 37.3788 55.2036 38.0606 55.5597 38.9545C55.9195 39.8485 56.0994 40.928 56.0994 42.1932C56.0994 43.4659 55.9195 44.553 55.5597 45.4545C55.2036 46.3523 54.6903 47.0379 54.0199 47.5114C53.3532 47.9848 52.5521 48.2216 51.6165 48.2216ZM51.6165 46.4432C52.3438 46.4432 52.9176 46.0852 53.3381 45.3693C53.7623 44.6496 53.9744 43.5909 53.9744 42.1932C53.9744 41.2689 53.8778 40.4924 53.6847 39.8636C53.4915 39.2348 53.2188 38.7614 52.8665 38.4432C52.5142 38.1212 52.0975 37.9602 51.6165 37.9602C50.893 37.9602 50.321 38.3201 49.9006 39.0398C49.4801 39.7557 49.268 40.8068 49.2642 42.1932C49.2604 43.1212 49.3532 43.9015 49.5426 44.5341C49.7358 45.1667 50.0085 45.6439 50.3608 45.9659C50.7131 46.2841 51.1316 46.4432 51.6165 46.4432Z"
            fill="#E74F10" />

    </symbol>

    <symbol id="icon-star" viewBox="0 0 72 72" fill="none">
        <path
            d="M36.159 5C23.9415 11.1476 17.7222 16.0201 8 27.7181C9.41304 44.6547 11.5897 53.2415 18.9772 66.2816C32.4673 68.5974 39.8812 68.548 52.8635 66.2816C59.9684 54.1144 61.9779 45.3182 63.6498 27.7181C55.4014 17.2091 49.1384 12.3955 36.159 5Z"
            stroke="#E74F10" stroke-width="3" />
        <path d="M59.163 30.3909C41.4979 32.9332 31.433 32.944 13.2495 30.3909L35.9676 41.9408L59.163 30.3909Z"
            fill="#E74F10" />
        <path d="M35.9677 52.5361L19.7405 65.4224L35.9677 42.0361L52.004 65.4224L35.9677 52.5361Z" fill="#E74F10" />
        <path
            d="M26.7271 21.8825H24.9523C24.9016 21.5914 24.8083 21.3336 24.6723 21.109C24.5362 20.8812 24.367 20.6882 24.1645 20.53C23.962 20.3718 23.7311 20.2532 23.4716 20.1741C23.2154 20.0918 22.9385 20.0507 22.6411 20.0507C22.1128 20.0507 21.6446 20.1836 21.2364 20.4493C20.8283 20.7119 20.5088 21.0979 20.2778 21.6072C20.0469 22.1134 19.9314 22.732 19.9314 23.4628C19.9314 24.2063 20.0469 24.8327 20.2778 25.342C20.512 25.8482 20.8315 26.231 21.2364 26.4905C21.6446 26.7467 22.1112 26.8749 22.6364 26.8749C22.9275 26.8749 23.1995 26.8369 23.4526 26.761C23.7089 26.6819 23.9383 26.5664 24.1408 26.4145C24.3464 26.2627 24.5188 26.076 24.658 25.8546C24.8004 25.6331 24.8985 25.38 24.9523 25.0953L26.7271 25.1048C26.6607 25.5667 26.5167 26.0001 26.2953 26.405C26.077 26.81 25.7906 27.1675 25.4363 27.4775C25.082 27.7844 24.6675 28.0249 24.193 28.1989C23.7184 28.3697 23.1916 28.4551 22.6127 28.4551C21.7585 28.4551 20.996 28.2574 20.3253 27.8619C19.6546 27.4665 19.1262 26.8954 18.7403 26.1488C18.3543 25.4021 18.1613 24.5068 18.1613 23.4628C18.1613 22.4156 18.3559 21.5202 18.745 20.7768C19.1341 20.0301 19.6641 19.4591 20.3348 19.0636C21.0055 18.6681 21.7648 18.4704 22.6127 18.4704C23.1537 18.4704 23.6567 18.5463 24.1218 18.6982C24.5868 18.8501 25.0013 19.0731 25.3651 19.3673C25.7289 19.6584 26.0279 20.0159 26.262 20.4398C26.4993 20.8606 26.6543 21.3415 26.7271 21.8825Z"
            fill="#E74F10" />
        <path
            d="M35.701 18.6379H33.9261C33.8755 18.3468 33.7822 18.089 33.6461 17.8643C33.5101 17.6365 33.3408 17.4436 33.1384 17.2854C32.9359 17.1272 32.7049 17.0085 32.4455 16.9294C32.1892 16.8472 31.9124 16.8061 31.615 16.8061C31.0867 16.8061 30.6184 16.9389 30.2103 17.2047C29.8022 17.4673 29.4827 17.8533 29.2517 18.3626C29.0208 18.8688 28.9053 19.4873 28.9053 20.2181C28.9053 20.9616 29.0208 21.588 29.2517 22.0974C29.4858 22.6036 29.8054 22.9864 30.2103 23.2458C30.6184 23.5021 31.0851 23.6302 31.6103 23.6302C31.9013 23.6302 32.1734 23.5923 32.4265 23.5163C32.6828 23.4372 32.9122 23.3218 33.1146 23.1699C33.3203 23.018 33.4927 22.8314 33.6319 22.6099C33.7743 22.3885 33.8723 22.1354 33.9261 21.8506L35.701 21.8601C35.6345 22.322 35.4906 22.7555 35.2691 23.1604C35.0508 23.5654 34.7645 23.9229 34.4102 24.2329C34.0558 24.5398 33.6414 24.7802 33.1668 24.9543C32.6923 25.1251 32.1655 25.2105 31.5865 25.2105C30.7323 25.2105 29.9699 25.0128 29.2992 24.6173C28.6285 24.2218 28.1001 23.6508 27.7141 22.9042C27.3282 22.1575 27.1352 21.2622 27.1352 20.2181C27.1352 19.171 27.3297 18.2756 27.7189 17.5321C28.108 16.7855 28.638 16.2144 29.3087 15.819C29.9794 15.4235 30.7387 15.2258 31.5865 15.2258C32.1275 15.2258 32.6306 15.3017 33.0956 15.4536C33.5607 15.6054 33.9752 15.8285 34.339 16.1227C34.7028 16.4138 35.0018 16.7713 35.2359 17.1952C35.4732 17.616 35.6282 18.0969 35.701 18.6379Z"
            fill="#E74F10" />
        <path
            d="M45.2457 18.6379H43.4708C43.4202 18.3468 43.3269 18.089 43.1908 17.8643C43.0548 17.6365 42.8855 17.4436 42.683 17.2854C42.4806 17.1272 42.2496 17.0085 41.9902 16.9294C41.7339 16.8472 41.4571 16.8061 41.1597 16.8061C40.6314 16.8061 40.1631 16.9389 39.755 17.2047C39.3469 17.4673 39.0273 17.8533 38.7964 18.3626C38.5654 18.8688 38.45 19.4873 38.45 20.2181C38.45 20.9616 38.5654 21.588 38.7964 22.0974C39.0305 22.6036 39.35 22.9864 39.755 23.2458C40.1631 23.5021 40.6298 23.6302 41.155 23.6302C41.446 23.6302 41.7181 23.5923 41.9712 23.5163C42.2275 23.4372 42.4568 23.3218 42.6593 23.1699C42.865 23.018 43.0374 22.8314 43.1766 22.6099C43.3189 22.3885 43.417 22.1354 43.4708 21.8506L45.2457 21.8601C45.1792 22.322 45.0353 22.7555 44.8138 23.1604C44.5955 23.5654 44.3092 23.9229 43.9549 24.2329C43.6005 24.5398 43.1861 24.7802 42.7115 24.9543C42.2369 25.1251 41.7102 25.2105 41.1312 25.2105C40.277 25.2105 39.5146 25.0128 38.8438 24.6173C38.1731 24.2218 37.6448 23.6508 37.2588 22.9042C36.8728 22.1575 36.6799 21.2622 36.6799 20.2181C36.6799 19.171 36.8744 18.2756 37.2636 17.5321C37.6527 16.7855 38.1826 16.2144 38.8533 15.819C39.5241 15.4235 40.2833 15.2258 41.1312 15.2258C41.6722 15.2258 42.1753 15.3017 42.6403 15.4536C43.1054 15.6054 43.5198 15.8285 43.8837 16.1227C44.2475 16.4138 44.5465 16.7713 44.7806 17.1952C45.0179 17.616 45.1729 18.0969 45.2457 18.6379Z"
            fill="#E74F10" />
        <path
            d="M46.2809 28.3223V18.6033H49.9255C50.6721 18.6033 51.2986 18.7425 51.8047 19.0209C52.3141 19.2993 52.6985 19.6821 52.9579 20.1693C53.2205 20.6534 53.3518 21.2039 53.3518 21.8208C53.3518 22.4441 53.2205 22.9977 52.9579 23.4818C52.6953 23.9658 52.3078 24.347 51.7953 24.6254C51.2827 24.9007 50.6516 25.0383 49.9018 25.0383H47.4863V23.5909H49.6645C50.1011 23.5909 50.4586 23.515 50.737 23.3631C51.0154 23.2113 51.221 23.0025 51.3539 22.7367C51.49 22.4709 51.558 22.1656 51.558 21.8208C51.558 21.476 51.49 21.1722 51.3539 20.9096C51.221 20.6471 51.0138 20.443 50.7322 20.2975C50.4538 20.1488 50.0948 20.0744 49.655 20.0744H48.0415V28.3223H46.2809Z"
            fill="#E74F10" />
    </symbol>

    <symbol id="icon-garage" viewBox="0 0 72 72" fill="none">
        <path
            d="M67.5001 52.3126H64.6876V15.8288L67.8544 15.151C68.2923 15.057 68.6749 14.7929 68.918 14.4169C69.1612 14.0408 69.245 13.5836 69.151 13.1457C69.057 12.7078 68.7929 12.3253 68.4169 12.0821C68.0408 11.8389 67.5836 11.7551 67.1457 11.8491L4.1457 25.3491C3.70784 25.4431 3.32526 25.7072 3.0821 26.0833C2.83895 26.4593 2.75515 26.9166 2.84913 27.3544C2.94312 27.7923 3.2072 28.1749 3.58326 28.418C3.95933 28.6612 4.41659 28.745 4.85445 28.651L7.31257 28.1251V52.3126H4.50007C4.05252 52.3126 3.6233 52.4904 3.30683 52.8068C2.99036 53.1233 2.81257 53.5525 2.81257 54.0001C2.81257 54.4476 2.99036 54.8768 3.30683 55.1933C3.6233 55.5098 4.05252 55.6876 4.50007 55.6876H67.5001C67.9476 55.6876 68.3768 55.5098 68.6933 55.1933C69.0098 54.8768 69.1876 54.4476 69.1876 54.0001C69.1876 53.5525 69.0098 53.1233 68.6933 52.8068C68.3768 52.4904 67.9476 52.3126 67.5001 52.3126ZM10.6876 27.3994L61.3126 16.5516V52.3126H53.4376V36.0001C53.4376 35.5525 53.2598 35.1233 52.9433 34.8068C52.6268 34.4904 52.1976 34.3126 51.7501 34.3126H20.2501C19.8025 34.3126 19.3733 34.4904 19.0568 34.8068C18.7404 35.1233 18.5626 35.5525 18.5626 36.0001V52.3126H10.6876V27.3994ZM50.0626 43.3126H21.9376V37.6876H50.0626V43.3126ZM21.9376 46.6876H50.0626V52.3126H21.9376V46.6876Z"
            fill="#E74F10" />
    </symbol>

    <symbol id="icon-license" viewBox="0 0 44 44" fill="none">
        <path
            d="M34.0001 21.25V14.5L27.25 7H11.5C11.1022 7 10.7206 7.15804 10.4393 7.43934C10.158 7.72064 10 8.10218 10 8.5V35.5C10 35.8978 10.158 36.2794 10.4393 36.5607C10.7206 36.842 11.1022 37 11.5 37H20.5"
            stroke="#E74F10" stroke-width="2.5" stroke-linecap="round" stroke-linejoin="round" />
        <path
            d="M26.5 7V14.5H34M24.25 27.4C24.25 26.5998 29.5 25 29.5 25C29.5 25 34.75 26.5998 34.75 27.4C34.75 33.7998 29.5 37 29.5 37C29.5 37 24.25 33.7998 24.25 27.4Z"
            stroke="#E74F10" stroke-width="2.5" stroke-linecap="round" stroke-linejoin="round" />
    </symbol>

    <symbol id="icon-man-option" viewBox="0 0 44 44" fill="none">
        <path
            d="M23.3146 27.6968C25.4021 26.411 27.0094 24.4876 27.8933 22.2179C28.7772 19.9481 28.8895 17.4554 28.2134 15.1168C27.5372 12.7783 26.1093 10.7212 24.1458 9.25666C22.1822 7.79217 19.7898 7 17.3304 7C14.8711 7 12.4787 7.79217 10.5151 9.25666C8.55151 10.7212 7.12363 12.7783 6.44748 15.1168C5.77133 17.4554 5.88369 19.9481 6.76755 22.2179C7.65142 24.4876 9.25871 26.411 11.3463 27.6968C7.9089 28.8097 4.81611 30.889 2.32923 33.816C2.21271 33.9478 2.12392 34.1012 2.06806 34.2673C2.0122 34.4334 1.99038 34.6089 2.00388 34.7835C2.01738 34.958 2.06594 35.1281 2.1467 35.2839C2.22746 35.4397 2.33882 35.578 2.47425 35.6907C2.60968 35.8034 2.76648 35.8883 2.93547 35.9404C3.10446 35.9924 3.28225 36.0107 3.45846 35.994C3.63466 35.9773 3.80573 35.9261 3.96167 35.8433C4.11762 35.7605 4.2553 35.6477 4.36668 35.5117C7.70915 31.5672 12.3134 29.3958 17.3221 29.3958C22.3308 29.3958 26.935 31.5672 30.2842 35.5117C30.5115 35.7793 30.8371 35.9467 31.1892 35.9769C31.5413 36.0072 31.8912 35.8979 32.1618 35.673C32.4324 35.4481 32.6017 35.1262 32.6323 34.7779C32.6629 34.4297 32.5523 34.0837 32.3249 33.816C29.8364 30.889 26.7436 28.8097 23.3146 27.6968ZM8.66628 18.2012C8.66628 16.5081 9.17394 14.853 10.1251 13.4452C11.0762 12.0374 12.428 10.9402 14.0097 10.2922C15.5913 9.64431 17.3317 9.47479 19.0108 9.8051C20.6898 10.1354 22.2321 10.9507 23.4427 12.1479C24.6532 13.3452 25.4776 14.8705 25.8116 16.5311C26.1456 18.1917 25.9742 19.9129 25.319 21.4772C24.6639 23.0414 23.5544 24.3784 22.131 25.319C20.7076 26.2597 19.0341 26.7618 17.3221 26.7618C15.0272 26.7592 12.8271 25.8564 11.2044 24.2515C9.58172 22.6467 8.66893 20.4708 8.66628 18.2012ZM41.3337 25.2917L40.558 24.8488C40.649 24.3723 40.649 23.8832 40.558 23.4067L41.3337 22.9638C41.4851 22.8774 41.6179 22.7622 41.7244 22.625C41.8309 22.4878 41.909 22.3311 41.9543 22.164C41.9996 21.997 42.0112 21.8227 41.9884 21.6512C41.9656 21.4797 41.9088 21.3143 41.8214 21.1645C41.7339 21.0146 41.6175 20.8833 41.4788 20.778C41.34 20.6727 41.1816 20.5954 41.0127 20.5506C40.8437 20.5058 40.6675 20.4944 40.4941 20.517C40.3207 20.5395 40.1535 20.5956 40.002 20.6821L39.2246 21.1266C38.8527 20.8109 38.4249 20.5659 37.9629 20.4039V19.5182C37.9629 19.1689 37.8226 18.8339 37.5728 18.5869C37.3231 18.3399 36.9844 18.2012 36.6312 18.2012C36.278 18.2012 35.9393 18.3399 35.6896 18.5869C35.4398 18.8339 35.2996 19.1689 35.2996 19.5182V20.4039C34.8375 20.5659 34.4098 20.8109 34.0378 21.1266L33.2604 20.6821C33.109 20.5956 32.9417 20.5395 32.7683 20.517C32.5949 20.4944 32.4187 20.5058 32.2497 20.5506C32.0808 20.5954 31.9224 20.6727 31.7837 20.778C31.6449 20.8833 31.5285 21.0146 31.4411 21.1645C31.3536 21.3143 31.2969 21.4797 31.2741 21.6512C31.2513 21.8227 31.2628 21.997 31.3081 22.164C31.3534 22.3311 31.4315 22.4878 31.538 22.625C31.6445 22.7622 31.7773 22.8774 31.9288 22.9638L32.7045 23.4067C32.6135 23.8832 32.6135 24.3723 32.7045 24.8488L31.9288 25.2917C31.7773 25.3781 31.6445 25.4933 31.538 25.6305C31.4315 25.7677 31.3534 25.9244 31.3081 26.0914C31.2628 26.2585 31.2513 26.4328 31.2741 26.6043C31.2969 26.7758 31.3536 26.9412 31.4411 27.091C31.5285 27.2408 31.6449 27.3722 31.7837 27.4775C31.9224 27.5828 32.0808 27.6601 32.2497 27.7049C32.4187 27.7497 32.5949 27.7611 32.7683 27.7385C32.9417 27.716 33.109 27.6599 33.2604 27.5734L34.0378 27.1289C34.4098 27.4446 34.8375 27.6896 35.2996 27.8516V28.7373C35.2996 29.0866 35.4398 29.4216 35.6896 29.6686C35.9393 29.9155 36.278 30.0543 36.6312 30.0543C36.9844 30.0543 37.3231 29.9155 37.5728 29.6686C37.8226 29.4216 37.9629 29.0866 37.9629 28.7373V27.8516C38.4249 27.6896 38.8527 27.4446 39.2246 27.1289L40.002 27.5734C40.2041 27.6896 40.434 27.7504 40.6678 27.7495C40.9611 27.7496 41.2461 27.654 41.4788 27.4775C41.7115 27.301 41.8787 27.0535 41.9546 26.7733C42.0305 26.4932 42.0108 26.1961 41.8985 25.9282C41.7862 25.6603 41.5877 25.4365 41.3337 25.2917ZM35.2996 24.1277C35.2996 23.8673 35.3777 23.6126 35.524 23.3961C35.6703 23.1795 35.8783 23.0107 36.1216 22.911C36.3649 22.8113 36.6327 22.7852 36.891 22.836C37.1493 22.8869 37.3866 23.0123 37.5728 23.1965C37.7591 23.3807 37.8859 23.6153 37.9373 23.8708C37.9887 24.1263 37.9623 24.3911 37.8615 24.6317C37.7607 24.8724 37.59 25.0781 37.371 25.2228C37.1521 25.3675 36.8946 25.4448 36.6312 25.4448C36.278 25.4448 35.9393 25.306 35.6896 25.059C35.4398 24.812 35.2996 24.477 35.2996 24.1277Z"
            fill="#E74F10" />
    </symbol>

    <symbol id="icon-energy" viewBox="0 0 44 44" fill="none">
        <path
            d="M19 36C28.3888 36 36 28.3888 36 19C36 9.61116 28.3888 2 19 2C9.61116 2 2 9.61116 2 19C2 28.3888 9.61116 36 19 36Z"
            stroke="#E74F10" stroke-width="2.5" stroke-linecap="round" stroke-linejoin="round" />
        <path
            d="M12.4192 18.3166L19.2175 9.1536C19.7496 8.4362 20.7458 8.8816 20.7458 9.837V16.9294C20.7458 17.5006 21.1368 17.9647 21.6196 17.9647H24.9244C25.6758 17.9647 26.077 19.0153 25.5806 19.6834L18.7823 28.8464C18.2502 29.5638 17.254 29.1184 17.254 28.163V21.0706C17.254 20.4994 16.863 20.0353 16.3802 20.0353H13.0754C12.3257 20.0353 11.9245 18.9847 12.4209 18.3166"
            stroke="#E74F10" stroke-width="2.5" stroke-linecap="round" stroke-linejoin="round" />
    </symbol>
</svg>